<svg xmlns="http://www.w3.org/2000/svg" version="1.1" xmlns:xlink="http://www.w3.org/1999/xlink" xmlns:svgjs="http://svgjs.dev/svgjs" width="308.7612359841165"
   height="304.915625" viewBox="0 0 106.00782394174519 104.68749999999999"><g transform="matrix(1,0,0,1,-0.28443113772425477,-0.28443113772459583)"><svg viewBox="0 0 334 334" data-background-color="#ffffff" preserveAspectRatio="xMidYMid meet" height="2000" width="2000" xmlns="http://www.w3.org/2000/svg" xmlns:xlink="http://www.w3.org/1999/xlink"><g id="tight-bounds" transform="matrix(1,0,0,1,0.04749999999998522,0.04750000000001364)"><svg viewBox="0 0 333.90454557049503 333.90454557049503" height="333.90454557049503" width="333.90454557049503"><g><svg></svg></g><g><svg viewBox="0 0 333.90454557049503 333.90454557049503" height="333.90454557049503" width="333.90454557049503"><g><path d="M0 166.952c0-92.205 74.747-166.952 166.952-166.952 92.205 0 166.952 74.747 166.953 166.952 0 92.205-74.747 166.952-166.953 166.953-92.205 0-166.952-74.747-166.952-166.953zM166.952 325.442c87.532 0 158.49-70.958 158.49-158.49 0-87.532-70.958-158.49-158.49-158.49-87.532 0-158.49 70.958-158.49 158.49 0 87.532 70.958 158.49 158.49 158.49z" data-fill-palette-color="tertiary" fill="#398378" stroke="transparent"></path><ellipse rx="160.27418187383762" ry="160.27418187383762" cx="166.95227278524752" cy="166.95227278524752" fill="#398378" stroke="transparent" stroke-width="0" fill-opacity="1" data-fill-palette-color="tertiary"></ellipse></g><g transform="matrix(1,0,0,1,81.62210432990398,71.17305217166896)"><svg viewBox="0 0 170.66033691068708 191.55844122715712" height="191.55844122715712" width="170.66033691068708"><g><svg viewBox="0 0 170.66033691068708 191.55844122715712" height="191.55844122715712" width="170.66033691068708"><g><svg viewBox="0 0 213.1584412271571 239.2606242026457" height="191.55844122715712" width="170.66033691068708"><g transform="matrix(1,0,0,1,0,122.05473643111502)"><svg viewBox="0 0 213.1584412271571 117.20588777153067" height="117.20588777153067" width="213.1584412271571"><g><svg viewBox="0 0 213.1584412271571 117.20588777153067" height="117.20588777153067" width="213.1584412271571"><g><svg viewBox="0 0 213.1584412271571 117.20588777153067" height="117.20588777153067" width="213.1584412271571"><g transform="matrix(1,0,0,1,0,0)"><svg width="213.1584412271571" viewBox="3 -37.5 68.19 37.5" height="117.20588777153067" data-palette-color="#ffffff"><path d="M17.95 0L6.6 0Q5.1 0 4.05-1.05 3-2.1 3-3.6L3-3.6 3-11.35 7.65-10.3 7.65-6.45Q7.65-5.7 8.18-5.18 8.7-4.65 9.4-4.65L9.4-4.65 15.1-4.65Q15.85-4.65 16.38-5.18 16.9-5.7 16.9-6.45L16.9-6.45 16.9-15.25Q16.9-16 16.38-16.53 15.85-17.05 15.1-17.05L15.1-17.05 6.6-17.05Q5.1-17.05 4.05-18.1 3-19.15 3-20.65L3-20.65 3-31.4Q3-32.9 4.05-33.95 5.1-35 6.6-35L6.6-35 17.95-35Q19.45-35 20.5-33.95 21.55-32.9 21.55-31.4L21.55-31.4 21.55-26 16.9-27.1 16.9-28.55Q16.9-29.3 16.38-29.83 15.85-30.35 15.1-30.35L15.1-30.35 9.4-30.35Q8.7-30.35 8.18-29.83 7.65-29.3 7.65-28.55L7.65-28.55 7.65-23.5Q7.65-22.75 8.18-22.23 8.7-21.7 9.4-21.7L9.4-21.7 17.95-21.7Q19.45-21.7 20.5-20.65 21.55-19.6 21.55-18.1L21.55-18.1 21.55-3.6Q21.55-2.1 20.5-1.05 19.45 0 17.95 0L17.95 0ZM38.15 0L27.7 0Q26.2 0 25.12-1.05 24.05-2.1 24.05-3.65L24.05-3.65 24.05-11.2Q24.05-12.7 25.12-13.78 26.2-14.85 27.7-14.85L27.7-14.85 31.6-14.85Q32.4-14.85 32.92-15.38 33.45-15.9 33.45-16.65L33.45-16.65 33.45-18.5Q33.45-19.25 32.92-19.78 32.4-20.3 31.6-20.3L31.6-20.3 26.2-20.3 27.25-25 34.5-25Q36-25 37.07-23.93 38.15-22.85 38.15-21.35L38.15-21.35 38.15 0ZM30.55-4.7L30.55-4.7 33.45-4.7 33.45-10.15 30.55-10.15Q29.8-10.15 29.27-9.63 28.75-9.1 28.75-8.35L28.75-8.35 28.75-6.5Q28.75-5.75 29.27-5.23 29.8-4.7 30.55-4.7ZM45.85 0L41.15 0 41.15-36.45 45.85-37.5 45.85-25 51.6-25Q53.1-25 54.15-23.93 55.2-22.85 55.2-21.35L55.2-21.35 55.2 0 50.5 0 50.5-18.5Q50.5-19.25 49.97-19.78 49.45-20.3 48.7-20.3L48.7-20.3 45.85-20.3 45.85 0ZM62.89-32.8L58.19-31.7 58.19-36.4 62.89-37.5 62.89-32.8ZM62.99 0L58.29 0 58.29-23.9 62.99-25 62.99 0ZM71.19 0L66.49 0 66.49-36.35 71.19-37.4 71.19 0Z" opacity="1" transform="matrix(1,0,0,1,0,0)" fill="#ffffff" class="undefined-text-0" data-fill-palette-color="quaternary" id="text-0"></path></svg></g></svg></g></svg></g></svg></g><g transform="matrix(1,0,0,1,40.713262274387006,0)"><svg viewBox="0 0 131.7319166783831 94.38523926956314" height="94.38523926956314" width="131.7319166783831"><g><svg xmlns="http://www.w3.org/2000/svg" xmlns:xlink="http://www.w3.org/1999/xlink" version="1.1" x="0" y="0" viewBox="1.5 15.2 97 69.5" enable-background="new 0 0 100 100" xml:space="preserve" height="94.38523926956314" width="131.7319166783831" class="icon-icon-0" data-fill-palette-color="quaternary" id="icon-0"><path d="M7.2 84.7h85.5c3.2 0 5.8-2.6 5.8-5.8v-2.5c0-0.5-0.2-1-0.5-1.4l-4.3-5.3c-0.7-0.9-1.1-1.9-1.1-3v-5-3.2-9.2l0 0V23.7c0-4.7-3.8-8.5-8.5-8.5H52.4 15.9c-4.7 0-8.5 3.8-8.5 8.5v34.8 1.9 6.2c0 1.1-0.4 2.2-1.1 3L2 75.1c-0.3 0.4-0.5 0.9-0.5 1.4V79C1.5 82.2 4.1 84.7 7.2 84.7zM59.2 76.4c0 1.6-1.3 2.9-2.9 2.9H43.8c-1.6 0-2.9-1.3-2.9-2.9v-0.6h18.4V76.4zM15.9 60.8v-2.2V23.7c0 0 0 0 0 0h40.3 27.9c0 0 0 0 0 0v34.9 2.2 0.6h0v0.4 5.5H15.9V60.8zM54.9 32.9l3.9 2.2-13.7 24-3.9-2.2L54.9 32.9zM38.5 38l-8 8 8 8-3.2 3.2-8-8L24.2 46l3.2-3.2 8-8L38.5 38zM72.6 42.8l3.2 3.2-3.2 3.2-8 8L61.5 54l8-8-8-8 3.2-3.2L72.6 42.8z" fill="#ffffff" data-fill-palette-color="quaternary"></path></svg></g></svg></g><g></g></svg></g></svg></g></svg></g></svg></g><defs></defs></svg><rect width="333.90454557049503" height="333.90454557049503" fill="none" stroke="none" visibility="hidden"></rect></g></svg></g></svg>